<?xml version="1.0" encoding="UTF-8"?>
<svg id="Layer_1" xmlns="http://www.w3.org/2000/svg" viewBox="0 0 512 535">
	<g fill="currentColor">
		<path d="M0 0 C168.96 0 337.92 0 512 0 C512 176.55 512 353.1 512 535 C343.03999999999996 535 174.07999999999998 535 0 535 C0 358.45 0 181.89999999999998 0 0 Z M230 29 C229.2923046875 29.6870703125 228.584609375 30.374140625 227.85546875 31.08203125 C217.3803447583816 41.87761792587443 211.7836815344161 56.419051904100066 211.93359375 71.375 C211.94318115234375 72.620234375 211.9527685546875 73.86546874999999 211.962646484375 75.1484375 C211.96880981445312 75.6189453125 211.96880981445312 75.6189453125 212 78 C210.96109619140626 77.9394140625 209.9221923828125 77.878828125 208.851806640625 77.81640625 C191.17455902951082 76.79932651783912 173.48685769846534 75.80324064492274 155.77658081054688 75.700439453125 C154.40196643367304 75.69192529790195 153.02737243555958 75.67839083170666 151.65286254882813 75.659423828125 C143.229798493602 75.5544619096379 135.99592424407138 76.3560209460714 128 79 C126.7483203125 79.353203125 125.496640625 79.70640625 124.20703125 80.0703125 C109.76572029768491 84.55725606401045 97.16546629130764 91.74028687391643 86 102 C85.510478515625 102.4471435546875 85.02095703125 102.894287109375 84.5166015625 103.35498046875 C65.77402196311786 120.66542256545266 51.62245613692655 145.74320338964876 49.818572998046875 171.6006317138672 C49.74953153488784 174.19144480058316 49.72387762470922 176.77941599581035 49.7109375 179.37109375 C49.21366889097684 203.63510699528757 47.51373246213076 220.86550118844102 33.15869140625 240.87353515625 C29.48133865233183 246.1994997984889 26.466304806878966 251.88352756769245 23.375 257.5625 C22.280520951691294 259.52318330890915 21.184257416535562 261.4828719036167 20.0859375 263.44140625 C8.700224383963441 283.8916487364766 8.700224383963441 283.8916487364766 10 293 C11.97011086940784 299.90135807586506 15.087590568395042 306.4588668639117 18 313 C18.26351257324219 313.5921630859375 18.527025146484377 314.184326171875 18.79852294921875 314.79443359375 C20.87352433525181 319.4521638787957 22.96566302179578 324.10206677089894 25.0625 328.75 C25.367242431640626 329.4269088745117 25.67198486328125 330.10381774902345 25.9859619140625 330.8012390136719 C31.676731347626745 343.43395203869875 31.676731347626745 343.43395203869875 34.45703125 348.91015625 C39.999922826406916 360.0239270736733 40.006965770990064 370.08316269350735 38.484375 382.15234375 C36.65193008000112 398.01017166308736 36.40211791755692 415.62147773182863 41 431 C41.193359375 431.6849755859375 41.38671875 432.369951171875 41.5859375 433.07568359375 C46.30921274874466 449.62536947689006 53.46171273828413 464.1295454939147 65 477 C65.26876953125 477.33966796875 65.26876953125 477.33966796875 66.62890625 479.05859375 C82.19686978199358 498.45026762318497 108.21925962958653 510.38425793082337 132.50892639160156 513.3013076782227 C138.94731668536397 513.8808608482864 145.4021700643399 514.1408035379188 151.859375 514.4140625 C153.94043961343124 514.5141914021208 156.0214326599691 514.6158175067085 158.10235595703125 514.7188415527344 C163.54847429385427 514.984908949386 168.99526088228114 515.2327249605851 174.44244384765625 515.4758911132813 C183.09264545177172 515.8658533306025 191.7414544075387 516.2865189530735 200.39051246643066 516.7009353637695 C203.53629039797107 516.8510573842933 206.68216351221062 516.9990564821692 209.8280487060547 517.1469116210938 C221.9364173291677 517.7210329717634 234.02277482023896 518.4167439723825 246.11244201660156 519.3032531738281 C259.29235095427623 520.2639026431458 272.4883448689156 520.8712060161637 285.6875 521.5 C290.94802273794124 521.7543618472625 296.2084203379109 522.0112086500271 301.46875 522.26953125 C302.7372428894043 522.331753692627 304.00573577880857 522.3939761352539 305.3126678466797 522.4580841064453 C312.49214287810054 522.8141078796268 319.66888871557865 523.1973299159117 326.84375 523.63671875 C327.62748489379885 523.6846255493164 328.41121978759764 523.7325323486328 329.2187042236328 523.7818908691406 C332.63500977044146 523.9928531348893 336.05045059400106 524.2118921562366 339.465576171875 524.44140625 C365.026417500699 526.0744844429878 365.026417500699 526.0744844429878 376.875 523.5 C377.28693603515626 523.4131091308593 377.28693603515626 523.4131091308593 379.37158203125 522.973388671875 C400.1051105004944 518.2328873482219 416.95389428752435 507.6626217587843 432 493 C432.6432421875 492.430234375 433.286484375 491.86046875 433.94921875 491.2734375 C444.7668279693646 481.4392473005776 451.3924739284952 467.2442347291962 457 454 C457.348046875 453.182734375 457.69609375 452.36546875 458.0546875 451.5234375 C460.84666103599153 444.06858032657937 461.8405263174967 435.8460421918579 463 428 C463.09788818359374 427.35699951171875 463.1957763671875 426.7139990234375 463.296630859375 426.051513671875 C463.9497247303009 421.1134147654626 464.0633990452281 416.21331985936 464.11328125 411.23828125 C464.37739534364914 393.21278213409204 465.9081346466215 379.90493540252453 476.28271484375 364.60546875 C479.33341092407306 359.97694606458515 481.9406358365064 355.09671315637485 484.625 350.25 C485.7035991365304 348.34384523199907 486.7842946343724 346.43887501559266 487.8671875 344.53515625 C490.8541263947285 339.26696352986585 493.81012111625716 333.98207880196935 496.75 328.6875 C497.1684619140625 327.934365234375 497.586923828125 327.18123046875 498.01806640625 326.4052734375 C502.1456089726431 318.9606748687453 503.8390320068883 312.68153929695325 501.47320556640625 304.0860595703125 C500.01147338441376 299.8937571271485 498.18996398128394 295.8616585575471 496.3298645019531 291.8333740234375 C495.2873495202112 289.570406325721 494.27962091304977 287.2944945290693 493.279052734375 285.0126953125 C490.58524631759053 278.8893986097547 487.8410166816622 272.7904041695492 485.013671875 266.7275390625 C477.1910368540432 249.94792308986936 471.83814915669427 235.9141398876294 474 217 C474.16699528663014 214.89585938845994 474.3337282306733 212.791697908376 474.5 210.6875 C474.543828125 210.241484375 474.543828125 210.241484375 474.765625 207.984375 C477.07982786054663 178.51685857570638 469.8660131647887 148.93982225545201 450.5 126.0625 C448.6972200011604 124.01007564720466 446.85643033822646 122.00526950528544 445 120 C444.63003906250003 119.58943359375 444.63003906250003 119.58943359375 442.7578125 117.51171875 C432.67588067966454 106.82043940206187 420.206828326159 100.03988428920619 407 94 C406.113125 93.5771875 405.22625 93.154375 404.3125 92.71875 C383.8687482576594 84.06947041670205 357.8403028764747 85.9461073807899 336 85 C336.0157104492188 84.396396484375 336.0314208984375 83.79279296875 336.047607421875 83.1708984375 C336.526419679131 61.97385960572923 333.8436495282336 46.21182386131163 319.5 29.56640625 C306.7753831199684 16.503791734092573 291.0982680271342 10.27844914898867 273.0625 9.6875 C256.185885911264 10.082531279060142 241.69083330140427 16.982721091575712 230 29 Z" />
		<path d="M0 0 C5.7307366718515595 -0.31258563664647454 10.944231030280434 0.282724307760418 16.5625 1.375 C32.521988019939386 4.360636619901925 48.64407571539391 5.177498964869358 64.853515625 5.296539306640625 C66.25590033165304 5.306967070539315 67.65826131758934 5.321732426951371 69.060546875 5.341400146484375 C78.24354805125648 5.453215186823286 86.4576673723056 4.582165802055442 95.37890625 2.547607421875 C99.20451750545436 1.9690714155383944 102.21929602774941 2.2667891508127127 106 3 C102.18106852197297 13.502061564574262 93.07010455356101 18.748154648311413 83.3125 23.375 C66.85243796628663 30.48275406001261 47.16599922826322 33.77801663868689 29.875 27.31640625 C18.009804923740774 21.883565569701943 6.735648093931445 14.49114038247103 0 3 C0 2.009999999999991 0 1.0199999999999818 0 0 Z" transform="translate(289,311)" />
		<path d="M0 0 C7.095629076741972 0.5068306483387346 13.70308112187854 2.1130764763930756 20.546875 3.96484375 C31.498513925593073 6.654925127951969 42.247785558782795 7.282741365903803 53.48828125 7.1953125 C54.92701518522372 7.191570488870525 56.36575171335846 7.188729155997862 57.80448913574219 7.186737060546875 C61.544457561056845 7.1791939220726135 65.28426427296631 7.159628710878621 69.024169921875 7.1373291015625 C72.85919000365394 7.116666718746956 76.69423687037741 7.107692286147142 80.529296875 7.09765625 C88.0196040260891 7.076371401021163 95.50977913736395 7.042352085756136 103 7 C98.9482469052601 17.86188405768729 87.17798043566091 24.34650463934662 77 29 C67.62940204458755 32.696180304634936 59.00498960982222 33.6030067538515 49 33 C48.1891796875 32.9677734375 47.378359375 32.935546875 46.54296875 32.90234375 C30.519424890464848 31.776364992302945 13.954788473294542 22.577476520224366 3 11.0625 C0.4571449845171571 7.16875325754188 0.23800182115599 4.601368542349121 0 0 Z" transform="translate(128,299)" />
		<path d="M0 0 C1 1 1 1 1.3125 4.125 C1.2598751948154074 8.201848155496862 0.3537486740840734 11.79680454902396 -0.73046875 15.71875 C-1.097289281407356 17.060003175557313 -1.4638986963533398 18.401314103294794 -1.830322265625 19.74267578125 C-2.0224832153320307 20.44023986816407 -2.2146441650390614 21.13780395507814 -2.412628173828125 21.85650634765625 C-3.3912288244852036 25.427709782001955 -4.339242814904459 29.006992159817287 -5.2890625 32.5859375 C-5.677064683891057 34.04557787419637 -6.065085608172147 35.505213266939904 -6.453125 36.96484375 C-6.64583984375 37.690424804687495 -6.8385546875 38.41600585937499 -7.037109375 39.16357421875 C-7.431940083061374 40.64878042872505 -7.827457862402678 42.13380414171314 -8.2236328125 43.61865234375 C-14.291231432728281 66.36469921712626 -14.291231432728281 66.36469921712626 -14.1875 72.9375 C-14.181054687500001 73.85402343750002 -14.174609375 74.77054687499998 -14.16796875 75.71484375 C-14 78 -14 78 -13 80 C-6.276475571872339 80.84044055351595 -6.276475571872339 80.84044055351595 -2.79296875 78.546875 C-0.775462522126098 76.76518118837112 1.130520901118146 74.93580208243421 3 73 C4 72 5 71 6 70 C6.919429373195399 72.98945893341818 7.304159148697437 74.40714742203042 5.84765625 77.24609375 C-0.2026734146693414 84.67330368846717 -7.369008275314556 91.96463931373614 -17.33203125 93.31640625 C-23.31613477755161 93.61609479499856 -23.31613477755161 93.61609479499856 -25.734375 91.4375 C-27.43884006460579 88.1548265422407 -27.53265323303753 85.18114803046689 -27.5 81.5625 C-27.495004882812502 80.82096679687498 -27.490009765625 80.07943359375 -27.48486328125 79.3154296875 C-27.192513271341994 69.57715004711605 -24.60621186460001 60.334796868643366 -22 51 C-21.732841796875 50.042871093749994 -21.46568359375 49.08574218749999 -21.1904296875 48.099609375 C-19.89878896413594 43.506087561660195 -18.580819730931765 38.92148291753912 -17.234375 34.34375 C-15.80860604817611 29.407037984726315 -14.85954495095547 24.91198638087286 -14.875 19.75 C-14.872421875 18.878593749999993 -14.869843750000001 18.007187499999986 -14.8671875 17.109375 C-15 15 -15 15 -16 14 C-21.825970584035556 13.52441056456854 -25.728084433858903 14.780246077414262 -31 17 C-30.8369140625 14.694580078125 -30.8369140625 14.694580078125 -30 12 C-27.6708984375 10.330810546875 -27.6708984375 10.330810546875 -24.609375 8.88671875 C-23.5072265625 8.361425781250006 -22.405078125 7.836132812500011 -21.26953125 7.294921875 C-20.1080859375 6.764472656250007 -18.946640625 6.234023437500014 -17.75 5.6875 C-16.6040234375 5.13771484374999 -15.458046875 4.587929687500008 -14.27734375 4.021484375 C-4.707063340951763 -0.46284375613146267 -4.707063340951763 -0.46284375613146267 0 0 Z" transform="translate(35,131)" />
		<path d="M0 0 C0.6730501774263473 1.6014988596796655 1.3382222671207344 3.2063102941576034 2 4.8125 C2.3712500000000034 5.705820312499995 2.7424999999999997 6.599140625000004 3.125 7.51953125 C4 10 4 10 4 13 C2.35546875 14.7890625 2.35546875 14.7890625 0.1875 16.625 C-0.5201953125000003 17.236015624999993 -1.2278906250000006 17.84703125 -1.95703125 18.4765625 C-4 20 -4 20 -7 21 C-7.894150551131268 19.259706981019676 -8.764751783175775 17.507298496400296 -9.625 15.75 C-10.112265625 14.775468750000002 -10.599531249999998 13.800937500000003 -11.1015625 12.796875 C-12 10 -12 10 -11.3984375 7.84375 C-9.792621348663111 5.726584571421753 -8.147681939573765 4.313386117777966 -6 2.75 C-5.298749999999998 2.229218750000001 -4.597499999999997 1.7084375000000023 -3.875 1.171875 C-2 0 -2 0 0 0 Z" transform="translate(44,85)" />
	</g>
</svg>